<svg version="1.1" id="Layer_1" xmlns="http://www.w3.org/2000/svg" xmlns:xlink="http://www.w3.org/1999/xlink" x="0px" y="0px"
	 width="100%" viewBox="0 0 200 200" enable-background="new 0 0 200 200" xml:space="preserve">
<path fill="#FEFEFE" opacity="1.000000" stroke="none" 
	d="
M130.000000,201.000000 
	C86.666672,201.000000 43.833340,201.000000 1.000006,201.000000 
	C1.000004,134.333344 1.000004,67.666679 1.000002,1.000015 
	C67.666656,1.000010 134.333313,1.000010 200.999969,1.000005 
	C200.999985,67.666649 200.999985,134.333298 201.000000,200.999969 
	C177.500000,201.000000 154.000000,201.000000 130.000000,201.000000 
M96.003532,105.987152 
	C96.003532,105.987152 95.935211,105.960205 96.669563,105.865639 
	C96.960289,104.457260 97.251015,103.048874 97.541748,101.640495 
	C96.703217,101.734642 95.864677,101.828796 94.435158,101.975227 
	C93.939598,101.692329 93.444038,101.409431 92.994141,100.328857 
	C94.396614,95.684227 96.293816,95.030190 100.951080,97.140221 
	C102.922546,98.033409 105.167877,98.322136 107.812973,98.980408 
	C108.217667,99.299438 108.622353,99.618469 109.009300,100.698189 
	C109.649185,102.559486 110.289062,104.420792 111.149330,106.923157 
	C109.687119,106.538345 109.004143,106.519135 108.510620,106.203583 
	C104.179802,103.434608 101.881783,105.615700 100.364510,109.545113 
	C98.387436,114.665321 96.200043,119.731377 94.660927,124.984161 
	C93.625763,128.517014 93.556351,132.332855 93.120430,136.774109 
	C92.970749,137.508667 92.821068,138.243210 91.981773,139.166946 
	C89.235443,143.307892 90.624191,155.606598 94.286911,158.427979 
	C94.959305,158.945923 96.171089,158.763611 97.033936,158.970917 
	C97.033936,158.970917 97.088692,158.864151 97.114853,159.587082 
	C98.089134,160.048752 99.063423,160.510406 100.003189,161.002472 
	C100.003189,161.002472 100.023453,160.962158 100.103157,161.672211 
	C102.070992,162.109924 104.038834,162.547638 106.741989,162.816452 
	C107.490730,162.867340 108.239479,162.918228 109.452003,163.530930 
	C113.259941,165.308929 116.405914,164.917358 119.250290,161.395645 
	C121.142067,159.053375 123.741249,157.282440 126.732979,154.994583 
	C127.483223,154.982193 128.233459,154.969803 129.464920,155.524292 
	C131.560120,155.036667 133.683792,154.646606 135.745819,154.045227 
	C147.260162,150.687195 151.980103,135.886719 143.198456,125.564087 
	C141.398926,123.448784 140.055206,121.281509 136.983871,122.049995 
	C136.983871,122.049995 136.873810,122.171967 136.895523,121.435631 
	C134.228271,119.985100 131.561020,118.534561 128.991547,117.021843 
	C128.991547,117.021843 128.925262,117.116890 128.914597,116.404243 
	C128.152786,114.320168 127.108063,113.076263 124.379272,115.053574 
	C123.899818,114.751007 123.420357,114.448448 122.930351,113.423515 
	C123.044823,112.315475 122.854424,110.420868 123.327332,110.237556 
	C125.225372,109.501869 127.314865,109.180496 129.361053,108.932785 
	C130.895554,108.747009 132.472046,108.908112 134.705627,108.865768 
	C135.129715,109.010307 135.553818,109.154846 136.118668,110.020134 
	C138.752914,113.294044 141.851532,112.375748 145.661591,110.834541 
	C146.108780,110.894615 146.555984,110.954681 147.552765,111.593842 
	C155.071793,112.590660 159.409256,110.847206 162.634644,104.392014 
	C164.651520,100.355492 165.578690,95.774506 166.897980,91.734459 
	C165.676163,90.085403 164.338821,88.848129 163.700729,87.319061 
	C161.199005,81.324036 159.041580,75.183662 156.472443,69.219551 
	C155.783844,67.620987 154.089600,66.455620 152.961716,65.022911 
	C152.961716,65.022911 152.896973,65.129974 152.969421,64.365341 
	C151.530197,58.792675 147.491730,55.817375 142.306992,57.099525 
	C141.859909,57.000275 141.412811,56.901024 140.362885,56.296856 
	C137.503113,56.499226 134.063324,54.091461 131.720306,58.623920 
	C131.165222,58.792446 130.610138,58.960972 129.702469,58.592564 
	C124.116470,60.290405 118.986511,66.757729 119.323112,72.257568 
	C118.923279,72.854797 118.523438,73.452026 117.401276,74.101120 
	C114.261559,76.681679 112.520966,79.860878 113.115631,84.641724 
	C112.801430,85.117676 112.487221,85.593628 111.422523,86.123100 
	C110.629074,88.448433 109.835632,90.773758 109.037270,93.585739 
	C109.037270,93.585739 108.751457,93.979652 108.014465,94.094398 
	C105.676575,94.064262 103.338692,94.034134 100.999695,94.000000 
	C100.999695,94.000000 101.003067,93.998093 101.598534,93.762291 
	C102.399277,93.507858 103.200020,93.253433 104.108887,93.272690 
	C104.192787,93.322182 104.276688,93.371674 104.360588,93.421173 
	C104.240059,93.281036 104.119522,93.140907 104.011429,92.210777 
	C106.448044,84.583015 108.957909,76.977135 111.249924,69.306160 
	C111.636665,68.011780 111.083817,66.436653 110.888428,64.318428 
	C111.001900,63.885120 111.115372,63.451817 111.921516,62.906532 
	C114.015709,60.612694 114.493553,53.483696 112.631386,51.427292 
	C112.353279,51.120174 111.735359,51.120785 111.000633,50.366753 
	C110.968338,49.923595 110.936043,49.480438 111.400635,48.706917 
	C110.906158,48.155037 110.411674,47.603157 109.991966,47.004807 
	C109.991966,47.004807 109.942528,47.077641 109.988373,46.307487 
	C109.229774,43.445396 108.467934,40.586788 103.907181,41.165195 
	C103.274139,40.769066 102.641098,40.372936 101.927475,39.324684 
	C100.949654,39.219971 99.971840,39.115253 98.165092,39.126839 
	C96.773445,39.074146 95.381798,39.021450 93.467026,38.414532 
	C85.918640,37.614952 81.310387,42.952400 75.353760,47.027447 
	C74.908379,47.034206 74.463005,47.040966 73.564072,46.486118 
	C69.210281,46.784191 65.014763,47.377087 62.847008,52.652222 
	C62.284241,53.129662 61.721474,53.607101 60.514511,53.801476 
	C59.512856,53.615559 58.511200,53.429638 56.326267,53.024086 
	C57.728043,55.031311 58.434978,56.043583 59.109875,57.694752 
	C58.767708,58.465843 58.425545,59.236935 57.319462,60.138859 
	C55.447605,62.590588 54.829460,64.943810 58.167683,67.521591 
	C58.246735,68.101654 58.325790,68.681709 58.166653,70.101517 
	C58.726440,77.300629 65.106415,79.746544 69.496536,83.782974 
	C69.815323,84.076073 71.151520,83.262611 72.605568,83.004601 
	C73.064125,83.357651 73.522682,83.710709 74.089134,84.747269 
	C76.606201,86.636284 79.123268,88.525307 81.880234,90.594360 
	C80.686050,93.739090 78.963356,94.243355 75.236061,93.071152 
	C70.409027,91.553101 65.568260,87.920502 59.165482,91.102661 
	C57.447990,91.079742 55.730499,91.056824 53.510590,90.457924 
	C48.128185,89.027016 44.187313,92.172050 42.015060,95.958206 
	C39.771381,99.868851 39.415104,104.882652 38.434299,109.456993 
	C38.360027,109.803383 39.890835,110.493935 40.943108,111.646690 
	C40.971573,112.095146 41.000034,112.543610 40.292786,112.996399 
	C39.326450,113.235863 38.360119,113.475319 37.962063,113.573959 
	C39.505020,115.645660 40.745258,117.623108 42.308460,119.299385 
	C43.340580,120.406174 44.836861,121.080116 46.637043,122.264153 
	C46.791996,122.830124 46.946949,123.396103 46.515976,124.429688 
	C45.084938,131.541061 46.262146,134.735001 51.642277,137.235626 
	C52.125248,138.072937 52.608215,138.910248 53.221977,140.303009 
	C53.523884,140.515564 53.825790,140.728119 54.035587,140.949066 
	C54.035587,140.949066 54.087402,140.872452 54.082710,141.599091 
	C56.129578,144.098526 57.842270,147.366089 62.844048,144.939011 
	C64.563156,144.961334 66.282272,144.983643 68.463142,145.553757 
	C73.887451,145.826279 76.978882,143.719513 78.215500,138.492569 
	C78.782234,137.983673 79.348969,137.474762 80.633453,136.936996 
	C81.875641,135.711487 83.107872,134.475677 84.362419,133.262939 
	C86.132164,131.552170 87.918427,129.858475 90.671974,127.225952 
	C89.835968,124.537849 89.758980,120.349510 93.643135,116.916656 
	C94.161369,116.458641 93.202171,114.328964 92.938972,112.382759 
	C93.241562,111.901382 93.544151,111.420013 94.476898,110.926575 
	C94.592972,110.262482 94.709053,109.598389 94.878250,108.236542 
	C95.056198,107.808945 95.234146,107.381348 95.723999,106.694389 
	C95.899460,106.469917 95.976654,106.215607 96.003532,105.987152 
M54.721535,59.117195 
	C54.530209,58.575211 54.338879,58.033226 54.147552,57.491241 
	C53.869980,57.618332 53.592407,57.745426 53.314835,57.872520 
	C53.639416,58.430466 53.963997,58.988407 54.721535,59.117195 
M74.705154,42.564510 
	C74.988922,42.293808 75.272690,42.023109 75.556465,41.752411 
	C75.444153,41.635048 75.240463,41.409401 75.232712,41.415943 
	C74.933411,41.668503 74.652023,41.942299 74.705154,42.564510 
z"/>
<path fill="#FC8007" opacity="1.000000" stroke="none" 
	d="
M93.846741,110.938637 
	C93.544151,111.420013 93.241562,111.901382 92.661621,112.888245 
	C88.228088,121.251099 84.071892,129.108490 79.915695,136.965866 
	C79.348969,137.474762 78.782234,137.983673 77.788040,138.862411 
	C74.240845,141.156815 71.121109,143.081390 68.001381,145.005966 
	C66.282272,144.983643 64.563156,144.961334 62.161659,144.761856 
	C59.015316,143.347290 56.551357,142.109863 54.087402,140.872452 
	C54.087402,140.872452 54.035587,140.949066 54.021645,140.665726 
	C53.702194,140.170776 53.396690,139.959167 53.091187,139.747559 
	C52.608215,138.910248 52.125248,138.072937 51.345215,136.713074 
	C49.732735,132.114365 48.417316,128.038223 47.101902,123.962074 
	C46.946949,123.396103 46.791996,122.830124 46.317669,121.761276 
	C44.341698,118.502953 42.685097,115.747505 41.028500,112.992065 
	C41.000034,112.543610 40.971573,112.095146 40.863903,110.954559 
	C39.288937,100.398857 42.786427,95.314949 54.013008,91.033905 
	C55.730499,91.056824 57.447990,91.079742 59.904625,91.241646 
	C71.412010,94.629265 82.180244,97.877907 92.948479,101.126541 
	C93.444038,101.409431 93.939598,101.692329 94.931770,102.255096 
	C95.597328,103.676704 95.766266,104.818459 95.935211,105.960205 
	C95.935211,105.960205 96.003532,105.987152 95.779144,106.054977 
	C95.324707,106.368454 95.277153,106.645439 95.412094,106.953758 
	C95.234146,107.381348 95.056198,107.808945 94.600365,108.746468 
	C94.163902,109.817139 94.005318,110.377892 93.846741,110.938637 
z"/>
<path fill="#FC8007" opacity="1.000000" stroke="none" 
	d="
M58.083382,60.008030 
	C58.425545,59.236935 58.767708,58.465843 59.402618,57.234268 
	C60.183140,55.877369 60.670921,54.980953 61.158703,54.084541 
	C61.721474,53.607101 62.284241,53.129662 63.297043,52.311531 
	C67.170593,50.329800 70.594109,48.688763 74.017624,47.047722 
	C74.463005,47.040966 74.908379,47.034206 76.039078,46.978146 
	C82.479645,44.275482 88.234901,41.622120 93.990150,38.968754 
	C95.381798,39.021450 96.773445,39.074146 98.817917,39.292519 
	C100.316521,39.631069 101.162285,39.803936 102.008057,39.976807 
	C102.641098,40.372936 103.274139,40.769066 104.378075,41.474236 
	C106.546822,43.548065 108.244675,45.312851 109.942528,47.077641 
	C109.942528,47.077641 109.991966,47.004807 109.960640,47.323132 
	C110.254128,48.106731 110.578941,48.572006 110.903755,49.037281 
	C110.936043,49.480438 110.968338,49.923595 111.071823,51.062298 
	C111.171616,55.511398 111.200226,59.264954 111.228844,63.018509 
	C111.115372,63.451817 111.001900,63.885120 110.677185,64.921043 
	C107.311653,75.015137 104.157356,84.506615 101.003067,93.998093 
	C101.003067,93.998093 100.999695,94.000000 100.689545,94.197342 
	C98.549957,94.171066 96.543053,94.356476 94.921783,93.653061 
	C87.880280,90.597977 80.951187,87.283783 73.981239,84.063759 
	C73.522682,83.710709 73.064125,83.357651 72.141769,82.697052 
	C67.253593,78.013596 62.829220,73.637688 58.404846,69.261772 
	C58.325790,68.681709 58.246735,68.101654 58.083557,66.832504 
	C58.027420,64.098289 58.055401,62.053158 58.083382,60.008030 
z"/>
<path fill="#FC8008" opacity="1.000000" stroke="none" 
	d="
M92.671387,138.977768 
	C92.821068,138.243210 92.970749,137.508667 93.331573,136.130707 
	C96.870300,125.831329 100.197891,116.175354 103.700172,106.012451 
	C110.791061,109.009903 116.865974,111.577896 122.940895,114.145889 
	C123.420357,114.448448 123.899818,114.751007 124.848999,115.343269 
	C126.520905,116.127602 127.723083,116.622246 128.925262,117.116890 
	C128.925262,117.116890 128.991547,117.021843 129.113480,117.343819 
	C131.781540,119.167854 134.327682,120.669907 136.873810,122.171967 
	C136.873810,122.171967 136.983871,122.049995 137.046890,122.399933 
	C137.970642,123.524094 138.854858,124.273895 139.688522,125.076248 
	C150.072601,135.070236 147.166443,148.370056 133.574081,153.141953 
	C132.022720,153.686600 130.512817,154.349396 128.983704,154.957413 
	C128.233459,154.969803 127.483223,154.982193 126.029465,155.095230 
	C119.880035,157.786957 114.434128,160.378036 108.988220,162.969116 
	C108.239479,162.918228 107.490730,162.867340 106.091217,162.699432 
	C103.634789,162.042328 101.829117,161.502243 100.023453,160.962158 
	C100.023453,160.962158 100.003189,161.002472 99.876396,160.708252 
	C98.862633,159.897415 97.975662,159.380783 97.088692,158.864151 
	C97.088692,158.864151 97.033936,158.970917 96.993484,158.600159 
	C91.611443,152.682770 92.106506,145.838028 92.671387,138.977768 
z"/>
<path fill="#FC8008" opacity="1.000000" stroke="none" 
	d="
M109.027039,99.937508 
	C108.622353,99.618469 108.217667,99.299438 107.605011,98.614967 
	C107.848511,96.826233 108.299988,95.402946 108.751457,93.979652 
	C108.751457,93.979652 109.037270,93.585739 109.306641,93.120239 
	C110.441689,90.459686 111.307350,88.264626 112.173012,86.069572 
	C112.487221,85.593628 112.801430,85.117676 113.401443,84.141312 
	C115.166039,80.443680 116.644814,77.246468 118.123596,74.049255 
	C118.523438,73.452026 118.923279,72.854797 119.619919,71.792358 
	C123.296165,67.261261 126.675613,63.195374 130.055054,59.129498 
	C130.610138,58.960972 131.165222,58.792446 132.293274,58.359428 
	C135.566071,57.663879 138.265900,57.232826 140.965729,56.801773 
	C141.412811,56.901024 141.859909,57.000275 142.878937,57.304966 
	C146.599564,60.050262 149.748276,62.590118 152.896973,65.129974 
	C152.896973,65.129974 152.961716,65.022911 152.940979,65.438965 
	C155.932480,73.148872 158.901596,80.460892 161.967178,87.732246 
	C166.448898,98.362450 161.127182,108.317604 149.863556,110.292549 
	C148.897583,110.461929 147.956055,110.770729 147.003174,111.014755 
	C146.555984,110.954681 146.108780,110.894615 145.017120,110.715485 
	C141.574402,110.164078 138.776154,109.731728 135.977905,109.299385 
	C135.553818,109.154846 135.129715,109.010307 134.109253,108.638718 
	C125.350922,105.586952 117.188980,102.762230 109.027039,99.937508 
z"/>
<path fill="#FEF8EC" opacity="1.000000" stroke="none" 
	d="
M109.018173,100.317848 
	C117.188980,102.762230 125.350922,105.586952 133.771362,108.663223 
	C132.472046,108.908112 130.895554,108.747009 129.361053,108.932785 
	C127.314865,109.180496 125.225372,109.501869 123.327332,110.237556 
	C122.854424,110.420868 123.044823,112.315475 122.935623,113.784698 
	C116.865974,111.577896 110.791061,109.009903 103.700172,106.012451 
	C100.197891,116.175354 96.870300,125.831329 93.298798,135.754700 
	C93.556351,132.332855 93.625763,128.517014 94.660927,124.984161 
	C96.200043,119.731377 98.387436,114.665321 100.364510,109.545113 
	C101.881783,105.615700 104.179802,103.434608 108.510620,106.203583 
	C109.004143,106.519135 109.687119,106.538345 111.149330,106.923157 
	C110.289062,104.420792 109.649185,102.559486 109.018173,100.317848 
z"/>
<path fill="#FEF8EC" opacity="1.000000" stroke="none" 
	d="
M108.382965,94.037025 
	C108.299988,95.402946 107.848511,96.826233 107.342880,98.567566 
	C105.167877,98.322136 102.922546,98.033409 100.951080,97.140221 
	C96.293816,95.030190 94.396614,95.684227 92.971313,100.727699 
	C82.180244,97.877907 71.412010,94.629265 60.328629,91.168159 
	C65.568260,87.920502 70.409027,91.553101 75.236061,93.071152 
	C78.963356,94.243355 80.686050,93.739090 81.880234,90.594360 
	C79.123268,88.525307 76.606201,86.636284 74.035187,84.405518 
	C80.951187,87.283783 87.880280,90.597977 94.921783,93.653061 
	C96.543053,94.356476 98.549957,94.171066 100.690094,94.199341 
	C103.338692,94.034134 105.676575,94.064262 108.382965,94.037025 
z"/>
<path fill="#FEF8EC" opacity="1.000000" stroke="none" 
	d="
M147.277969,111.304298 
	C147.956055,110.770729 148.897583,110.461929 149.863556,110.292549 
	C161.127182,108.317604 166.448898,98.362450 161.967178,87.732246 
	C158.901596,80.460892 155.932480,73.148872 152.888626,65.473206 
	C154.089600,66.455620 155.783844,67.620987 156.472443,69.219551 
	C159.041580,75.183662 161.199005,81.324036 163.700729,87.319061 
	C164.338821,88.848129 165.676163,90.085403 166.897980,91.734459 
	C165.578690,95.774506 164.651520,100.355492 162.634644,104.392014 
	C159.409256,110.847206 155.071793,112.590660 147.277969,111.304298 
z"/>
<path fill="#FEF8EC" opacity="1.000000" stroke="none" 
	d="
M129.224304,155.240845 
	C130.512817,154.349396 132.022720,153.686600 133.574081,153.141953 
	C147.166443,148.370056 150.072601,135.070236 139.688522,125.076248 
	C138.854858,124.273895 137.970642,123.524094 136.976364,122.442047 
	C140.055206,121.281509 141.398926,123.448784 143.198456,125.564087 
	C151.980103,135.886719 147.260162,150.687195 135.745819,154.045227 
	C133.683792,154.646606 131.560120,155.036667 129.224304,155.240845 
z"/>
<path fill="#FEF8EC" opacity="1.000000" stroke="none" 
	d="
M80.274574,136.951431 
	C84.071892,129.108490 88.228088,121.251099 92.655716,113.183571 
	C93.202171,114.328964 94.161369,116.458641 93.643135,116.916656 
	C89.758980,120.349510 89.835968,124.537849 90.671974,127.225952 
	C87.918427,129.858475 86.132164,131.552170 84.362419,133.262939 
	C83.107872,134.475677 81.875641,135.711487 80.274574,136.951431 
z"/>
<path fill="#FEF8EC" opacity="1.000000" stroke="none" 
	d="
M101.300797,93.880188 
	C104.157356,84.506615 107.311653,75.015137 110.715515,65.257446 
	C111.083817,66.436653 111.636665,68.011780 111.249924,69.306160 
	C108.957909,76.977135 106.448044,84.583015 104.005714,92.605392 
	C104.000000,93.000000 104.000755,92.999001 104.000755,92.999008 
	C103.200020,93.253433 102.399277,93.507858 101.300797,93.880188 
z"/>
<path fill="#FEF8EC" opacity="1.000000" stroke="none" 
	d="
M53.761799,90.745918 
	C42.786427,95.314949 39.288937,100.398857 40.730118,110.643463 
	C39.890835,110.493935 38.360027,109.803383 38.434299,109.456993 
	C39.415104,104.882652 39.771381,99.868851 42.015060,95.958206 
	C44.187313,92.172050 48.128185,89.027016 53.761799,90.745918 
z"/>
<path fill="#FEF8EC" opacity="1.000000" stroke="none" 
	d="
M109.220108,163.250031 
	C114.434128,160.378036 119.880035,157.786957 125.674881,155.225830 
	C123.741249,157.282440 121.142067,159.053375 119.250290,161.395645 
	C116.405914,164.917358 113.259941,165.308929 109.220108,163.250031 
z"/>
<path fill="#FEF8EC" opacity="1.000000" stroke="none" 
	d="
M92.326584,139.072357 
	C92.106506,145.838028 91.611443,152.682770 97.043465,158.566971 
	C96.171089,158.763611 94.959305,158.945923 94.286911,158.427979 
	C90.624191,155.606598 89.235443,143.307892 92.326584,139.072357 
z"/>
<path fill="#FEF8EC" opacity="1.000000" stroke="none" 
	d="
M58.285751,69.681641 
	C62.829220,73.637688 67.253593,78.013596 71.846321,82.676567 
	C71.151520,83.262611 69.815323,84.076073 69.496536,83.782974 
	C65.106415,79.746544 58.726440,77.300629 58.285751,69.681641 
z"/>
<path fill="#FEF8EC" opacity="1.000000" stroke="none" 
	d="
M93.728592,38.691643 
	C88.234901,41.622120 82.479645,44.275482 76.354080,46.859627 
	C81.310387,42.952400 85.918640,37.614952 93.728592,38.691643 
z"/>
<path fill="#FEF8EC" opacity="1.000000" stroke="none" 
	d="
M129.878754,58.861031 
	C126.675613,63.195374 123.296165,67.261261 119.613884,71.510071 
	C118.986511,66.757729 124.116470,60.290405 129.878754,58.861031 
z"/>
<path fill="#FEF8EC" opacity="1.000000" stroke="none" 
	d="
M46.808937,124.195877 
	C48.417316,128.038223 49.732735,132.114365 51.088982,136.569092 
	C46.262146,134.735001 45.084938,131.541061 46.808937,124.195877 
z"/>
<path fill="#FEF8EC" opacity="1.000000" stroke="none" 
	d="
M111.575180,62.962521 
	C111.200226,59.264954 111.171616,55.511398 111.208817,51.368439 
	C111.735359,51.120785 112.353279,51.120174 112.631386,51.427292 
	C114.493553,53.483696 114.015709,60.612694 111.575180,62.962521 
z"/>
<path fill="#FEF8EC" opacity="1.000000" stroke="none" 
	d="
M40.660645,112.994232 
	C42.685097,115.747505 44.341698,118.502953 46.061813,121.603119 
	C44.836861,121.080116 43.340580,120.406174 42.308460,119.299385 
	C40.745258,117.623108 39.505020,115.645660 37.962063,113.573959 
	C38.360119,113.475319 39.326450,113.235863 40.660645,112.994232 
z"/>
<path fill="#FEF8EC" opacity="1.000000" stroke="none" 
	d="
M152.933197,64.747658 
	C149.748276,62.590118 146.599564,60.050262 143.221832,57.262772 
	C147.491730,55.817375 151.530197,58.792675 152.933197,64.747658 
z"/>
<path fill="#FEF8EC" opacity="1.000000" stroke="none" 
	d="
M68.232262,145.279861 
	C71.121109,143.081390 74.240845,141.156815 77.688248,139.137970 
	C76.978882,143.719513 73.887451,145.826279 68.232262,145.279861 
z"/>
<path fill="#FEF8EC" opacity="1.000000" stroke="none" 
	d="
M73.790848,46.766922 
	C70.594109,48.688763 67.170593,50.329800 63.399536,52.050018 
	C65.014763,47.377087 69.210281,46.784191 73.790848,46.766922 
z"/>
<path fill="#FEF8EC" opacity="1.000000" stroke="none" 
	d="
M117.762436,74.075195 
	C116.644814,77.246468 115.166039,80.443680 113.415558,83.846123 
	C112.520966,79.860878 114.261559,76.681679 117.762436,74.075195 
z"/>
<path fill="#FEF8EC" opacity="1.000000" stroke="none" 
	d="
M136.048279,109.659760 
	C138.776154,109.731728 141.574402,110.164078 144.686523,110.800201 
	C141.851532,112.375748 138.752914,113.294044 136.048279,109.659760 
z"/>
<path fill="#FEF8EC" opacity="1.000000" stroke="none" 
	d="
M54.085056,141.235779 
	C56.551357,142.109863 59.015316,143.347290 61.734146,144.811676 
	C57.842270,147.366089 56.129578,144.098526 54.085056,141.235779 
z"/>
<path fill="#FEF8EC" opacity="1.000000" stroke="none" 
	d="
M136.884674,121.803802 
	C134.327682,120.669907 131.781540,119.167854 129.064590,117.374908 
	C131.561020,118.534561 134.228271,119.985100 136.884674,121.803802 
z"/>
<path fill="#FEF8EC" opacity="1.000000" stroke="none" 
	d="
M109.965454,46.692566 
	C108.244675,45.312851 106.546822,43.548065 104.666916,41.490349 
	C108.467934,40.586788 109.229774,43.445396 109.965454,46.692566 
z"/>
<path fill="#FEF8EC" opacity="1.000000" stroke="none" 
	d="
M57.701424,60.073444 
	C58.055401,62.053158 58.027420,64.098289 57.929413,66.576904 
	C54.829460,64.943810 55.447605,62.590588 57.701424,60.073444 
z"/>
<path fill="#FEF8EC" opacity="1.000000" stroke="none" 
	d="
M100.063309,161.317184 
	C101.829117,161.502243 103.634789,162.042328 105.723557,162.783875 
	C104.038834,162.547638 102.070992,162.109924 100.063309,161.317184 
z"/>
<path fill="#FEF8EC" opacity="1.000000" stroke="none" 
	d="
M140.664307,56.549316 
	C138.265900,57.232826 135.566071,57.663879 132.462479,58.118561 
	C134.063324,54.091461 137.503113,56.499226 140.664307,56.549316 
z"/>
<path fill="#FEF8EC" opacity="1.000000" stroke="none" 
	d="
M96.302383,105.912918 
	C95.766266,104.818459 95.597328,103.676704 95.227264,102.228958 
	C95.864677,101.828796 96.703217,101.734642 97.541748,101.640495 
	C97.251015,103.048874 96.960289,104.457260 96.302383,105.912918 
z"/>
<path fill="#FEF8EC" opacity="1.000000" stroke="none" 
	d="
M60.836609,53.943008 
	C60.670921,54.980953 60.183140,55.877369 59.418640,56.914818 
	C58.434978,56.043583 57.728043,55.031311 56.326267,53.024086 
	C58.511200,53.429638 59.512856,53.615559 60.836609,53.943008 
z"/>
<path fill="#FEF8EC" opacity="1.000000" stroke="none" 
	d="
M111.797768,86.096336 
	C111.307350,88.264626 110.441689,90.459686 109.309105,92.876907 
	C109.835632,90.773758 110.629074,88.448433 111.797768,86.096336 
z"/>
<path fill="#FEF8EC" opacity="1.000000" stroke="none" 
	d="
M128.919922,116.760567 
	C127.723083,116.622246 126.520905,116.127602 125.144882,115.354675 
	C127.108063,113.076263 128.152786,114.320168 128.919922,116.760567 
z"/>
<path fill="#FEF8EC" opacity="1.000000" stroke="none" 
	d="
M101.967766,39.650742 
	C101.162285,39.803936 100.316521,39.631069 99.232384,39.234367 
	C99.971840,39.115253 100.949654,39.219971 101.967766,39.650742 
z"/>
<path fill="#FEF8EC" opacity="1.000000" stroke="none" 
	d="
M54.505058,59.331772 
	C53.963997,58.988407 53.639416,58.430466 53.314835,57.872520 
	C53.592407,57.745426 53.869980,57.618332 54.147552,57.491241 
	C54.338879,58.033226 54.530209,58.575211 54.505058,59.331772 
z"/>
<path fill="#FEF8EC" opacity="1.000000" stroke="none" 
	d="
M97.101776,159.225616 
	C97.975662,159.380783 98.862633,159.897415 99.893661,160.693054 
	C99.063423,160.510406 98.089134,160.048752 97.101776,159.225616 
z"/>
<path fill="#FEF8EC" opacity="1.000000" stroke="none" 
	d="
M111.152191,48.872101 
	C110.578941,48.572006 110.254128,48.106731 109.923256,47.346367 
	C110.411674,47.603157 110.906158,48.155037 111.152191,48.872101 
z"/>
<path fill="#FEF8EC" opacity="1.000000" stroke="none" 
	d="
M94.161819,110.932602 
	C94.005318,110.377892 94.163902,109.817139 94.573807,109.095345 
	C94.709053,109.598389 94.592972,110.262482 94.161819,110.932602 
z"/>
<path fill="#FEF8EC" opacity="1.000000" stroke="none" 
	d="
M74.536713,42.388901 
	C74.652023,41.942299 74.933411,41.668503 75.232712,41.415943 
	C75.240463,41.409401 75.444153,41.635048 75.556465,41.752411 
	C75.272690,42.023109 74.988922,42.293808 74.536713,42.388901 
z"/>
<path fill="#FEF8EC" opacity="1.000000" stroke="none" 
	d="
M53.156582,140.025284 
	C53.396690,139.959167 53.702194,140.170776 54.067703,140.661530 
	C53.825790,140.728119 53.523884,140.515564 53.156582,140.025284 
z"/>
<path fill="#FEF8EC" opacity="1.000000" stroke="none" 
	d="
M95.568054,106.824074 
	C95.277153,106.645439 95.324707,106.368454 95.755173,106.027130 
	C95.976654,106.215607 95.899460,106.469917 95.568054,106.824074 
z"/>
<path fill="#FEF8EC" opacity="1.000000" stroke="none" 
	d="
M103.999496,93.000381 
	C104.119522,93.140907 104.240059,93.281036 104.360588,93.421173 
	C104.276688,93.371674 104.192787,93.322182 104.054825,93.135849 
	C104.000755,92.999001 104.000000,93.000000 103.999496,93.000381 
z"/>
</svg>