<svg xmlns="http://www.w3.org/2000/svg" width="200" height="200" viewBox="0 0 200 200">
<g>
<path d="M 92.43 160.43 C91.10,161.75 87.68,162.00 70.63,162.00 C56.23,162.00 50.05,161.65 49.20,160.80 C48.33,159.93 48.00,152.33 48.00,132.87 L 48.00 132.77 C48.00,111.13 48.00,105.22 45.37,103.61 C44.38,103.00 43.02,103.00 41.15,103.00 L 41.13 103.00 C37.16,103.00 35.00,101.60 35.00,99.02 C35.00,96.95 41.22,90.97 72.36,63.06 C92.81,44.74 98.72,39.95 100.60,40.19 C104.16,40.65 165.00,95.69 165.00,98.45 C165.00,101.56 163.10,103.00 159.00,103.00 C157.02,103.00 154.86,103.54 154.20,104.20 C153.33,105.07 153.00,112.67 153.00,132.13 C153.00,155.09 152.78,159.08 151.43,160.43 C150.11,161.75 146.75,162.00 130.36,162.00 C118.84,162.00 110.08,161.58 108.93,160.96 C107.14,160.01 107.00,158.72 107.00,143.40 C107.00,133.92 106.56,126.04 105.96,124.93 C105.19,123.49 103.86,123.00 100.66,123.00 C98.32,123.00 95.86,123.54 95.20,124.20 C94.36,125.04 94.00,130.45 94.00,142.13 C94.00,156.00 93.73,159.13 92.43,160.43 ZM 62.75 147.92 C63.71,148.48 67.51,148.95 71.19,148.97 C80.87,149.01 81.00,148.73 81.00,127.75 C81.00,115.20 81.32,110.83 82.25,110.51 C82.94,110.27 90.82,109.91 99.77,109.71 C112.48,109.42 116.48,109.65 118.02,110.73 C119.86,112.02 120.00,113.31 120.00,129.52 C120.00,130.23 120.00,130.91 120.00,131.57 C119.99,142.10 119.99,146.28 122.03,147.93 C123.37,149.02 125.60,149.01 129.29,149.00 C129.64,149.00 130.00,149.00 130.38,149.00 C130.64,149.00 130.89,149.00 131.13,149.00 C133.93,149.01 135.84,149.01 137.15,148.12 C140.01,146.20 140.00,140.05 140.00,120.55 C140.00,119.76 140.00,118.95 140.00,118.12 L 140.00 91.69 L 136.22 88.10 C125.40,77.81 101.38,57.00 100.32,57.00 C99.12,57.00 88.61,66.01 70.25,82.79 L 61.00 91.25 L 61.00 119.07 C61.00,144.52 61.15,146.99 62.75,147.92 Z" fill="rgb(251,251,251)"/>
<path d="M 0.00 100.00 L 0.00 0.00 L 100.00 0.00 L 200.00 0.00 L 200.00 100.00 L 200.00 200.00 L 100.00 200.00 L 0.00 200.00 L 0.00 100.00 ZM 92.43 160.43 C93.73,159.13 94.00,156.00 94.00,142.13 C94.00,130.45 94.36,125.04 95.20,124.20 C95.86,123.54 98.32,123.00 100.66,123.00 C103.86,123.00 105.19,123.49 105.96,124.93 C106.56,126.04 107.00,133.92 107.00,143.40 C107.00,158.72 107.14,160.01 108.93,160.96 C110.08,161.58 118.84,162.00 130.36,162.00 C146.75,162.00 150.11,161.75 151.43,160.43 C152.78,159.08 153.00,155.09 153.00,132.13 C153.00,112.67 153.33,105.07 154.20,104.20 C154.86,103.54 157.02,103.00 159.00,103.00 C163.10,103.00 165.00,101.56 165.00,98.45 C165.00,95.69 104.16,40.65 100.60,40.19 C98.72,39.95 92.81,44.74 72.36,63.06 C41.22,90.97 35.00,96.95 35.00,99.02 C35.00,101.60 37.16,103.00 41.13,103.00 C48.01,103.00 48.00,102.97 48.00,132.87 C48.00,152.33 48.33,159.93 49.20,160.80 C50.05,161.65 56.23,162.00 70.63,162.00 C87.68,162.00 91.10,161.75 92.43,160.43 ZM 62.75 147.92 C61.15,146.99 61.00,144.52 61.00,119.07 L 61.00 91.25 L 70.25 82.79 C88.61,66.01 99.12,57.00 100.32,57.00 C101.38,57.00 125.40,77.81 136.22,88.10 L 140.00 91.69 L 140.00 118.12 C140.00,149.85 140.27,149.00 130.38,149.00 C119.61,149.00 120.00,149.73 120.00,129.52 C120.00,113.31 119.86,112.02 118.02,110.73 C116.48,109.65 112.48,109.42 99.77,109.71 C90.82,109.91 82.94,110.27 82.25,110.51 C81.32,110.83 81.00,115.20 81.00,127.75 C81.00,148.73 80.87,149.01 71.19,148.97 C67.51,148.95 63.71,148.48 62.75,147.92 Z" fill="rgb(116,119,197)"/>
</g>
</svg>