<?xml version="1.0" encoding="UTF-8"?>
<svg version="1.1" xmlns="http://www.w3.org/2000/svg" width="600" height="600">
<path d="M0 0 C198 0 396 0 600 0 C600 198 600 396 600 600 C402 600 204 600 0 600 C0 402 0 204 0 0 Z " fill="#FEFEFE" transform="translate(0,0)"/>
<path d="M0 0 C18.15 0 36.3 0 55 0 C56.32 3.96 57.64 7.92 59 12 C60.01553404 14.98715314 61.03381524 17.97307147 62.05859375 20.95703125 C62.61523842 22.58137882 63.17187891 24.20572783 63.72851562 25.83007812 C64.58159996 28.31752844 65.43489456 30.80490648 66.28833008 33.29223633 C69.47217206 42.57377394 72.62801518 51.86262585 75.72045898 61.17504883 C78.20012848 68.6130818 80.76445317 76.02269142 83.3125 83.4375 C83.86789932 85.05531768 84.42323818 86.67315611 84.97851562 88.29101562 C86.31831654 92.19424903 87.65892447 96.09720435 89 100 C92.03664795 94.28087038 94.21726364 88.69720891 96.0625 82.5 C97.66399769 77.2069864 99.32875111 71.98627025 101.31030273 66.82226562 C102.28740146 64.24064974 103.14434349 61.62401329 104 59 C105.31934183 55.00199446 106.71217375 51.05519891 108.21875 47.125 C109.55477599 43.49100931 110.73728219 39.80566795 111.9375 36.125 C112.95661609 33.12759975 114.05895483 30.16929286 115.17919922 27.20849609 C117.03225713 22.22254669 118.7406452 17.18383901 120.48242188 12.15820312 C120.92618164 10.88299805 120.92618164 10.88299805 121.37890625 9.58203125 C121.6426001 8.82124268 121.90629395 8.0604541 122.17797852 7.27661133 C123.06149904 4.82967671 124.03380608 2.4154848 125 0 C141.5 0 158 0 175 0 C175 2.31 175 4.62 175 7 C170.38 7 165.76 7 161 7 C161 53.2 161 99.4 161 147 C165.62 147 170.24 147 175 147 C175 148.98 175 150.96 175 153 C155.2 153 135.4 153 115 153 C115 151.02 115 149.04 115 147 C119.95 147 124.9 147 130 147 C129.67 101.79 129.34 56.58 129 10 C123.06 27.16 117.12 44.32 111 62 C100.40725829 92.35955435 89.71443129 122.68323777 79 153 C76.69 153 74.38 153 72 153 C71.61630249 151.83319702 71.61630249 151.83319702 71.22485352 150.64282227 C66.60874855 136.63203365 61.94144815 122.65527931 56.88232422 108.79711914 C52.68584211 97.24385224 48.700294 85.61802431 44.6875 74 C39.14656095 57.9619577 33.52764781 41.95926113 27.66674805 26.03515625 C27.00026245 24.22337891 27.00026245 24.22337891 26.3203125 22.375 C25.75207764 20.83972656 25.75207764 20.83972656 25.17236328 19.2734375 C24.22304218 16.62277167 23.31411581 13.96704731 22.42672729 11.29541016 C22.15886854 10.48963531 21.89100979 9.68386047 21.6150341 8.85366821 C21.31059222 7.93610245 21.31059222 7.93610245 21 7 C20.9532398 23.568223 20.91799147 40.13642453 20.89637566 56.70469761 C20.88607145 64.39796215 20.87202748 72.09118564 20.84912109 79.78442383 C20.82916101 86.49133693 20.81627735 93.1982203 20.81182301 99.90516227 C20.80922006 103.4550828 20.80311986 107.00491827 20.78853989 110.55481148 C20.77238016 114.52166439 20.772022 118.48843477 20.77294922 122.45532227 C20.76575867 123.62704987 20.75856812 124.79877747 20.75115967 126.00601196 C20.61644791 135.88847464 20.61644791 135.88847464 25.0625 144.375 C28.9836049 146.54412186 32.5760232 146.80723413 37 147 C37 148.98 37 150.96 37 153 C24.79 153 12.58 153 0 153 C0 151.02 0 149.04 0 147 C0.60328125 146.84144531 1.2065625 146.68289063 1.828125 146.51953125 C6.98826791 145.01310243 10.16014829 143.85141333 13 139 C14.01090151 135.84189853 14.13571217 132.92684162 14.15821838 129.62164307 C14.1680072 128.53071854 14.17779602 127.43979401 14.18788147 126.31581116 C14.19363693 125.12394699 14.1993924 123.93208282 14.20532227 122.70410156 C14.22017166 120.8159095 14.22017166 120.8159095 14.23532104 118.88957214 C14.26232751 115.44159208 14.28336008 111.9935984 14.30332303 108.54557133 C14.32520889 104.94073575 14.35258485 101.33594197 14.37937927 97.73114014 C14.42927102 90.90663934 14.47422288 84.08211529 14.51740164 77.25756907 C14.5668041 69.48734266 14.62171106 61.71715819 14.67708123 53.94697237 C14.79084726 37.96468679 14.89750274 21.98236204 15 6 C10.05 6 5.1 6 0 6 C0 4.02 0 2.04 0 0 Z " fill="#C51431" transform="translate(202,223)"/>
<path d="M0 0 C0.65871094 0.27247559 1.31742187 0.54495117 1.99609375 0.82568359 C3.84014074 1.60404511 5.67059399 2.41438665 7.5 3.2265625 C11.75565871 4.62338702 14.62187999 4.7976558 19.0703125 4.3984375 C20.7149799 1.93517038 20.7149799 1.93517038 22.0703125 -0.6015625 C24.0503125 -0.6015625 26.0303125 -0.6015625 28.0703125 -0.6015625 C28.0703125 16.5584375 28.0703125 33.7184375 28.0703125 51.3984375 C26.0903125 51.3984375 24.1103125 51.3984375 22.0703125 51.3984375 C21.77898437 50.38265625 21.48765625 49.366875 21.1875 48.3203125 C15.9265628 30.44664354 8.45037939 14.8854472 -8.16015625 5.08203125 C-16.09883606 1.26561399 -25.9700385 0.94264538 -34.48828125 3.0234375 C-41.62133458 6.13806507 -46.90907307 13.09764377 -50.03125 20.0625 C-62.50063111 52.48289088 -62.98502037 99.27948038 -50.6171875 131.85546875 C-47.69246315 138.30098899 -44.14265304 143.75145948 -37.9296875 147.3984375 C-28.51723831 150.71188918 -17.83334891 150.97659528 -8.4921875 147.3359375 C4.87952158 140.84939028 13.17000592 130.35586244 18.0703125 116.3984375 C19.63626399 110.78604691 20.87403146 105.09915104 22.0703125 99.3984375 C24.3803125 99.3984375 26.6903125 99.3984375 29.0703125 99.3984375 C29.0703125 117.2184375 29.0703125 135.0384375 29.0703125 153.3984375 C26.7603125 153.3984375 24.4503125 153.3984375 22.0703125 153.3984375 C21.0803125 149.9334375 21.0803125 149.9334375 20.0703125 146.3984375 C16.43427638 145.07816807 15.07060846 145.39831474 11.42578125 146.91015625 C10.03243453 147.62765591 8.6433137 148.35340268 7.2578125 149.0859375 C-10.09034436 157.67769077 -27.6714036 160.33937415 -46.4296875 154.65625 C-65.14554049 147.93024033 -79.19236159 135.03057171 -88.06152344 117.2734375 C-97.83938094 96.15590499 -99.48707456 70.5894267 -91.77294922 48.59472656 C-84.26683925 29.04493927 -71.65320564 10.03459507 -52.3671875 0.57421875 C-34.46757249 -7.39188147 -18.25760266 -7.55579727 0 0 Z " fill="#C51532" transform="translate(160.9296875,222.6015625)"/>
<path d="M0 0 C20.46 0 40.92 0 62 0 C62 1.98 62 3.96 62 6 C57.05 6 52.1 6 47 6 C47.0383434 18.26745136 47.09811353 30.53460432 47.18390274 42.80182076 C47.22311017 48.50037777 47.25542792 54.19878642 47.27099609 59.89746094 C47.28634111 65.41552019 47.32109414 70.93317077 47.36830902 76.45104599 C47.38294143 78.53730556 47.39103034 80.62362353 47.39188385 82.70993423 C47.40077768 93.56733598 47.87201115 104.12027855 49.72558594 114.83544922 C49.94491476 116.14870776 49.94491476 116.14870776 50.16867447 117.48849678 C51.87127049 126.33751504 55.63753222 136.18605233 63.19140625 141.55859375 C73.75945727 148.28665066 84.68847481 149.76966486 97.0625 147.41796875 C106.35599436 144.52695275 114.42810395 137.59516457 119 129 C122.72419141 120.77292261 123.15162777 112.83579492 123.19287109 103.92138672 C123.20513733 102.43960434 123.20513733 102.43960434 123.21765137 100.92788696 C123.24234588 97.67849315 123.25897297 94.42914227 123.2734375 91.1796875 C123.28142302 89.51069586 123.28142302 89.51069586 123.28956985 87.80798721 C123.31622146 81.92782533 123.33562888 76.04768417 123.35009766 70.16748047 C123.3634772 65.30205658 123.39141534 60.43704808 123.43212891 55.57177734 C123.48134547 49.68925143 123.5062036 43.80710428 123.51332474 37.92438126 C123.52004701 35.68443789 123.53529425 33.4445033 123.55921555 31.20467758 C123.5907469 28.07594034 123.59092265 24.94867786 123.58349609 21.81982422 C123.59990143 20.89502258 123.61630676 19.97022095 123.63320923 19.01739502 C123.58921177 14.4951911 123.47243484 12.60856926 120.61709595 8.93045044 C117.8892164 6.91828261 116.52459368 6.3369221 113.1875 6.1875 C112.39730469 6.13980469 111.60710937 6.09210938 110.79296875 6.04296875 C110.20128906 6.02878906 109.60960937 6.01460937 109 6 C109 4.02 109 2.04 109 0 C121.54 0 134.08 0 147 0 C147 1.98 147 3.96 147 6 C146.40832031 6.01417969 145.81664062 6.02835938 145.20703125 6.04296875 C140.83095217 6.30710403 138.55967055 6.56858729 135 9.3125 C132.3024624 12.93731615 131.87891275 15.78146495 131.85523987 20.22357178 C131.84834137 21.05892456 131.84144287 21.89427734 131.83433533 22.75494385 C131.83172195 23.66306824 131.82910858 24.57119263 131.82641602 25.50683594 C131.8163855 26.95147217 131.8163855 26.95147217 131.80615234 28.42529297 C131.79210902 30.51617929 131.78021268 32.60708088 131.77020454 34.69799042 C131.75377594 38.0106509 131.73053602 41.32319877 131.70530701 44.63580322 C131.63459056 54.05434541 131.57448697 63.47293395 131.52319336 72.89160156 C131.49133379 78.65399089 131.45003891 84.41625105 131.40299797 90.17853546 C131.3870181 92.37127603 131.37467808 94.56404633 131.36609077 96.75682831 C131.35388453 99.82988025 131.32971152 102.90263079 131.30297852 105.97558594 C131.30238937 106.8756134 131.30180023 107.77564087 131.30119324 108.70294189 C131.14667192 122.1643904 126.56976197 134.39790775 117 144 C102.26883723 156.13432318 83.37169114 157.96411207 65 157 C52.55136679 155.71663575 36.29068173 150.03844707 28 140 C18.43898544 126.86899288 14.64701234 114.47188806 14.77294922 98.29614258 C14.77265717 97.28991852 14.77236511 96.28369446 14.77206421 95.24697876 C14.77344353 91.96273796 14.78893819 88.6787318 14.8046875 85.39453125 C14.80842261 83.10096867 14.81126723 80.80740448 14.81326294 78.51383972 C14.82086019 72.50844841 14.84047477 66.50315547 14.8626709 60.49780273 C14.88321391 54.35727265 14.89228267 48.2167265 14.90234375 42.07617188 C14.92372463 30.05073828 14.95781291 18.02537736 15 6 C10.05 6 5.1 6 0 6 C0 4.02 0 2.04 0 0 Z " fill="#C51533" transform="translate(387,223)"/>
<path d="M0 0 C0.99 0.33 1.98 0.66 3 1 C3 2.32 3 3.64 3 5 C3.66 5 4.32 5 5 5 C5.33 3.35 5.66 1.7 6 0 C6.99 0 7.98 0 9 0 C9 2.97 9 5.94 9 9 C8.34 9 7.68 9 7 9 C6.67 8.34 6.34 7.68 6 7 C5.67 7.66 5.34 8.32 5 9 C4.34 9 3.68 9 3 9 C2.67 8.34 2.34 7.68 2 7 C1.01 7.495 1.01 7.495 0 8 C0 5.36 0 2.72 0 0 Z " fill="#CF475C" transform="translate(552,223)"/>
<path d="M0 0 C1.98 0 3.96 0 6 0 C6 0.66 6 1.32 6 2 C5.34 2 4.68 2 4 2 C4 4.31 4 6.62 4 9 C3.34 9 2.68 9 2 9 C2 6.69 2 4.38 2 2 C1.34 2 0.68 2 0 2 C0 1.34 0 0.68 0 0 Z " fill="#CF465A" transform="translate(545,223)"/>
</svg>
