<?xml version="1.0" encoding="UTF-8"?>
<svg version="1.1" xmlns="http://www.w3.org/2000/svg" width="183" height="275">
<path d="M0 0 C60.39 0 120.78 0 183 0 C183 90.75 183 181.5 183 275 C122.61 275 62.22 275 0 275 C0 184.25 0 93.5 0 0 Z " fill="#A259FF" transform="translate(0,0)"/>
<path d="M0 0 C60.39 0 120.78 0 183 0 C183 43.56 183 87.12 183 132 C182.67 132 182.34 132 182 132 C181.79697266 130.90945312 181.79697266 130.90945312 181.58984375 129.796875 C178.94433664 117.44061425 173.46591146 107.35857723 163 100 C154.05764479 94.64554228 146.15641016 92.70041749 135.84887695 92.72875977 C134.85275894 92.72353302 133.85664093 92.71830627 132.83033752 92.71292114 C130.67567321 92.70271187 128.52098446 92.69690612 126.36629677 92.69503975 C122.94722237 92.69136209 119.5284344 92.67459532 116.10942078 92.65428162 C106.39111681 92.59901413 96.67277066 92.56825448 86.9543457 92.54370117 C81.00042295 92.52775549 75.04670311 92.49746134 69.09288597 92.45893669 C66.83367263 92.44734647 64.57442289 92.44135687 62.31517982 92.44125557 C44.35363977 92.44015844 27.39858573 91.84173915 13.25 79.125 C9.52693752 75.12338723 6.97481922 70.76976897 4.5 65.9375 C4.16129883 65.2770166 3.82259766 64.6165332 3.47363281 63.93603516 C-5.19070151 45.81276175 0 13.76955741 0 0 Z " fill="#FE7262" transform="translate(0,0)"/>
<path d="M0 0 C2.5505617 2.5505617 2.82325272 4.58719772 3.75 8.0625 C5.60105217 14.25771887 7.93529821 18.99047648 12 24 C12.50144531 24.62519531 13.00289062 25.25039062 13.51953125 25.89453125 C20.73250594 33.94989715 31.5539484 38.50239023 42.21484375 39.21484375 C56.42867146 39.60066969 68.51941789 35.85600969 79.08203125 26.13671875 C85.57318224 18.90523282 89.05425091 10.41371939 91 1 C91.33 1 91.66 1 92 1 C92 44.23 92 87.46 92 132 C48.44 132 4.88 132 -40 132 C-40 131.67 -40 131.34 -40 131 C-39.23816406 130.84144531 -38.47632813 130.68289063 -37.69140625 130.51953125 C-25.26420574 127.71138732 -14.47378876 122.06122757 -7.1875 111.1875 C-6.44180414 109.80042668 -5.71466158 108.4033152 -5 107 C-4.6478241 106.3270842 -4.29564819 105.6541684 -3.93280029 104.96086121 C0.41063926 95.09456567 -0.39486958 84.48750736 -0.390625 73.92578125 C-0.37562577 71.7891465 -0.358895 69.65252326 -0.34051514 67.51591492 C-0.29702527 61.9248498 -0.27688331 56.33394105 -0.26177979 50.74273682 C-0.2421423 45.02436141 -0.20017988 39.30615325 -0.16015625 33.58789062 C-0.08505315 22.3919789 -0.03464138 11.19610497 0 0 Z " fill="#FDFEFE" transform="translate(91,143)"/>
<path d="M0 0 C30.03 0 60.06 0 91 0 C91 30.03 91 60.06 91 91 C82.29625 91.061875 73.5925 91.12375 64.625 91.1875 C60.53279053 91.22846802 60.53279053 91.22846802 56.35791016 91.27026367 C54.16829876 91.27903476 51.97868243 91.28667722 49.7890625 91.29296875 C48.11686646 91.3159906 48.11686646 91.3159906 46.41088867 91.33947754 C33.2963919 91.34381913 22.73983031 87.35306275 12.875 78.625 C9.28476761 74.83734139 6.92302244 70.61157445 4.5625 66 C4.22009277 65.33564941 3.87768555 64.67129883 3.52490234 63.98681641 C3.20859863 63.33116699 2.89229492 62.67551758 2.56640625 62 C2.28740479 61.4225 2.00840332 60.845 1.72094727 60.25 C-0.54099769 53.19070955 -0.13372888 45.60484632 -0.09765625 38.28125 C-0.09664917 37.30639648 -0.09564209 36.33154297 -0.09460449 35.32714844 C-0.08940938 31.71808683 -0.07544837 28.10904212 -0.0625 24.5 C-0.041875 16.415 -0.02125 8.33 0 0 Z " fill="#F24E1D" transform="translate(0,0)"/>
<path d="M0 0 C1.07204178 0.0028299 2.14408356 0.00565979 3.24861145 0.00857544 C6.63070435 0.01965875 10.01252009 0.04474055 13.39453125 0.0703125 C15.70507427 0.08035763 18.01562149 0.08948078 20.32617188 0.09765625 C25.95321757 0.11955909 31.5801046 0.15291623 37.20703125 0.1953125 C37.33473197 7.93235471 37.42175807 15.66912108 37.48168945 23.40698242 C37.50669677 26.03436438 37.54071378 28.66167775 37.58422852 31.28881836 C37.64548641 35.08464575 37.67338068 38.87954644 37.6953125 42.67578125 C37.72111893 43.83361618 37.74692535 44.99145111 37.77351379 46.18437195 C37.77813784 59.89996774 32.69317095 70.34360759 23.3671875 80.125 C12.62892992 90.35818616 -0.56131358 92.5283751 -14.828125 92.390625 C-16.50702065 92.38638016 -16.50702065 92.38638016 -18.21983337 92.38204956 C-21.7651578 92.37092982 -25.31022176 92.3458404 -28.85546875 92.3203125 C-31.2714807 92.3102721 -33.68749665 92.30114811 -36.10351562 92.29296875 C-42.00008761 92.2710174 -47.89650956 92.23762229 -53.79296875 92.1953125 C-53.84401761 85.27599263 -53.87884775 78.35672202 -53.90283203 71.43725586 C-53.91283939 69.0873025 -53.92644942 66.73736143 -53.94384766 64.38745117 C-53.9683287 60.99394684 -53.97950485 57.60060832 -53.98828125 54.20703125 C-53.99860382 53.17011642 -54.00892639 52.1332016 -54.01956177 51.06486511 C-54.02184834 35.92506467 -50.7183584 24.61040935 -40.1953125 13.45703125 C-36.68562191 10.15278597 -32.96073687 7.59397064 -28.79296875 5.1953125 C-27.84421875 4.6178125 -26.89546875 4.0403125 -25.91796875 3.4453125 C-17.61615262 0.12458605 -8.83068054 -0.08980457 0 0 Z " fill="#0ACE83" transform="translate(53.79296875,182.8046875)"/>
<path d="M0 0 C9.63974313 7.53753229 16.74691675 17.53422618 18.875 29.859375 C20.41980736 44.24539355 17.16572449 56.73472451 8.125 68.1875 C-0.38855635 77.4448057 -10.62776302 82.45804563 -23.09375 83.44140625 C-37.8531772 83.94753705 -49.25048384 79.39531469 -60.0625 69.5625 C-69.25133889 59.9885002 -72.2466909 48.05318125 -72.17578125 35.18603516 C-71.83190561 22.02972159 -66.01880177 11.3400687 -56.578125 2.30078125 C-39.99873954 -10.66084814 -17.39179977 -12.0386786 0 0 Z " fill="#1ABCFE" transform="translate(163.875,99.8125)"/>
<path d="M0 0 C0.33 0 0.66 0 1 0 C1 26.4 1 52.8 1 80 C0.67 80 0.34 80 0 80 C-0.20302734 78.90945312 -0.20302734 78.90945312 -0.41015625 77.796875 C-3.05936719 65.42331494 -8.54129861 55.38463316 -19 48 C-25.58987852 43.92004279 -32.48934555 41.75629372 -40 40 C-40 39.67 -40 39.34 -40 39 C-39.26136719 38.85304687 -38.52273437 38.70609375 -37.76171875 38.5546875 C-26.38615226 36.03963214 -16.15178413 31.53571217 -9 22 C-4.88892686 15.0452992 -1.44185327 8.01029594 0 0 Z " fill="#FCFDFD" transform="translate(182,52)"/>
<path d="M0 0 C1.56011325 3.1202265 2.63030711 5.84339672 3.6875 9.125 C8.1011778 21.29506746 15.92384778 29.25077324 27.5 34.8125 C32.27358662 36.85928467 36.89556013 38.07952724 42 39 C42 39.33 42 39.66 42 40 C41.18917969 40.14695313 40.37835938 40.29390625 39.54296875 40.4453125 C26.49384883 43.08855681 16.54885837 48.21119268 8.50390625 59.0078125 C3.90897989 65.96155862 1.73764355 72.73839227 1 81 C0.67 81 0.34 81 0 81 C0 54.27 0 27.54 0 0 Z " fill="#FCFDFD" transform="translate(0,144)"/>
<path d="M0 0 C0.33 0 0.66 0 1 0 C1.06316406 0.55945312 1.12632813 1.11890625 1.19140625 1.6953125 C2.78871767 12.15349887 7.6250886 23.07653631 15.57421875 30.25390625 C23.48807283 35.95035194 32.26076697 39.90040917 42 41 C42 41.33 42 41.66 42 42 C41.24976563 42.15855469 40.49953125 42.31710938 39.7265625 42.48046875 C26.31381854 45.53803381 15.17024984 50.96917267 7.625 62.9375 C5.45381274 66.8300429 3.87241503 70.71250674 2.640625 74.9921875 C2 77 2 77 0 81 C0 54.27 0 27.54 0 0 Z " fill="#FEFCFC" transform="translate(0,50)"/>
<path d="M0 0 C0.33 0 0.66 0 1 0 C1.07476562 0.65484375 1.14953125 1.3096875 1.2265625 1.984375 C3.17341853 15.49784628 9.28419328 25.13300077 19.93359375 33.5234375 C25.42929232 37.29387519 31.66196169 39.10915191 38 41 C38 41.33 38 41.66 38 42 C25.46 42 12.92 42 0 42 C0 28.14 0 14.28 0 0 Z " fill="#FAFDFC" transform="translate(0,233)"/>
<path d="M0 0 C12.54 0 25.08 0 38 0 C38 0.33 38 0.66 38 1 C37.09121094 1.22042969 37.09121094 1.22042969 36.1640625 1.4453125 C24.41629578 4.59009928 14.31351126 10.71722754 8.01953125 21.34375 C4.82934299 27.33464558 2.20888164 33.28399086 1 40 C0.67 40 0.34 40 0 40 C0 26.8 0 13.6 0 0 Z " fill="#F7F7FE" transform="translate(91,92)"/>
<path d="M0 0 C12.87 0 25.74 0 39 0 C39 0.33 39 0.66 39 1 C37.74896484 1.32871094 37.74896484 1.32871094 36.47265625 1.6640625 C24.31356336 5.0903361 14.13355181 10.86144226 7.23828125 21.79296875 C3.72604137 28.36672524 1.84411919 34.60668018 1 42 C0.67 42 0.34 42 0 42 C0 28.14 0 14.28 0 0 Z " fill="#FEFBFA" transform="translate(0,0)"/>
<path d="M0 0 C13.53 0 27.06 0 41 0 C41 12.87 41 25.74 41 39 C40.67 39 40.34 39 40 39 C39.78085938 38.16597656 39.56171875 37.33195312 39.3359375 36.47265625 C35.59223925 23.18709295 28.90577763 13.32044435 17 6 C11.53239184 3.54578952 5.98379795 1.64689708 0 1 C0 0.67 0 0.34 0 0 Z " fill="#FEFCFC" transform="translate(142,0)"/>
</svg>
